<?xml version="1.0" encoding="UTF-8" standalone="no"?>
<svg
   width="400"
   height="400"
   version="1.1"
   viewBox="0 0 105.83 105.83"
   id="svg2"
   sodipodi:docname="favicon.svg"
   inkscape:version="1.4.2 (ebf0e940d0, 2025-05-08)"
   xmlns:inkscape="http://www.inkscape.org/namespaces/inkscape"
   xmlns:sodipodi="http://sodipodi.sourceforge.net/DTD/sodipodi-0.dtd"
   xmlns="http://www.w3.org/2000/svg"
   xmlns:svg="http://www.w3.org/2000/svg">
  <defs
     id="defs2">
    <inkscape:path-effect
       effect="fillet_chamfer"
       id="path-effect14"
       is_visible="true"
       lpeversion="1"
       nodesatellites_param="F,0,0,1,0,15.874501,0,1 @ F,0,0,1,0,0,0,1 @ F,0,0,1,0,15.8745,0,1 @ F,0,0,1,0,15.874497,0,1 @ F,0,0,1,0,15.874499,0,1 @ F,0,0,1,0,0,0,1 @ F,0,0,1,0,15.874499,0,1 @ F,0,0,1,0,15.874497,0,1 | F,0,0,1,0,9.2601226,0,1 @ F,0,0,1,0,9.2601257,0,1 @ F,0,0,1,0,9.2601274,0,1 @ F,0,0,1,0,0,0,1 | F,0,0,1,0,9.2601272,0,1 @ F,0,0,1,0,0,0,1 @ F,0,0,1,0,9.2601228,0,1 @ F,0,0,1,0,9.2601239,0,1"
       radius="0"
       unit="px"
       method="auto"
       mode="F"
       chamfer_steps="1"
       flexible="false"
       use_knot_distance="true"
       apply_no_radius="true"
       apply_with_radius="true"
       only_selected="false"
       hide_knots="false" />
    <inkscape:path-effect
       effect="fillet_chamfer"
       id="path-effect12"
       is_visible="true"
       lpeversion="1"
       nodesatellites_param="F,0,0,1,0,15.874501,0,1 @ F,0,0,1,0,0,0,1 @ F,0,0,1,0,15.8745,0,1 @ F,0,0,1,0,15.874497,0,1 @ F,0,0,1,0,15.874499,0,1 @ F,0,0,1,0,0,0,1 @ F,0,0,1,0,15.874499,0,1 @ F,0,0,1,0,15.874497,0,1 | F,0,0,1,0,9.2601226,0,1 @ F,0,0,1,0,9.2601257,0,1 @ F,0,0,1,0,9.2601274,0,1 @ F,0,0,1,0,0,0,1 | F,0,0,1,0,9.2601272,0,1 @ F,0,0,1,0,0,0,1 @ F,0,0,1,0,9.2601228,0,1 @ F,0,0,1,0,9.2601239,0,1"
       radius="0"
       unit="px"
       method="auto"
       mode="F"
       chamfer_steps="1"
       flexible="false"
       use_knot_distance="true"
       apply_no_radius="true"
       apply_with_radius="true"
       only_selected="false"
       hide_knots="false" />
    <inkscape:path-effect
       effect="fillet_chamfer"
       id="path-effect11"
       is_visible="false"
       lpeversion="1"
       nodesatellites_param="F,0,0,1,0,15.874501,0,1 @ F,0,0,1,0,0,0,1 @ F,0,0,1,0,15.874501,0,1 @ F,0,0,1,0,15.874502,0,1 @ F,0,0,1,0,15.874498,0,1 @ F,0,0,1,0,0,0,1 @ F,0,0,1,0,15.874499,0,1 @ F,0,0,1,0,15.874497,0,1 | F,0,0,1,0,10.583003,0,1 @ F,0,0,1,0,10.583001,0,1 @ F,0,0,1,0,10.582997,0,1 @ F,0,0,1,0,0,0,1 | F,0,1,1,0,2.645752,0,1 @ F,0,1,1,0,2.645752,0,1 @ F,0,0,1,0,7.9372478,0,1 @ F,0,0,1,0,7.9372478,0,1"
       radius="0"
       unit="px"
       method="auto"
       mode="F"
       chamfer_steps="1"
       flexible="false"
       use_knot_distance="true"
       apply_no_radius="true"
       apply_with_radius="true"
       only_selected="false"
       hide_knots="false" />
    <inkscape:path-effect
       effect="fillet_chamfer"
       id="path-effect3"
       is_visible="true"
       lpeversion="1"
       nodesatellites_param="F,0,0,1,0,15.874501,0,1 @ F,0,0,1,0,0,0,1 @ F,0,0,1,0,15.874499,0,1 @ F,0,0,1,0,15.874497,0,1 | F,0,0,1,0,0,0,1 @ F,0,0,1,0,15.874501,0,1 @ F,0,0,1,0,15.874502,0,1 @ F,0,0,1,0,15.874499,0,1"
       radius="0"
       unit="px"
       method="auto"
       mode="F"
       chamfer_steps="1"
       flexible="false"
       use_knot_distance="true"
       apply_no_radius="true"
       apply_with_radius="true"
       only_selected="false"
       hide_knots="false" />
  </defs>
  <sodipodi:namedview
     id="namedview2"
     pagecolor="#ffffff"
     bordercolor="#000000"
     borderopacity="0.25"
     inkscape:showpageshadow="2"
     inkscape:pageopacity="0.0"
     inkscape:pagecheckerboard="0"
     inkscape:deskcolor="#d1d1d1"
     showgrid="true"
     inkscape:zoom="0.26822917"
     inkscape:cx="445.51456"
     inkscape:cy="203.18447"
     inkscape:window-width="914"
     inkscape:window-height="717"
     inkscape:window-x="0"
     inkscape:window-y="0"
     inkscape:window-maximized="0"
     inkscape:current-layer="svg2">
    <inkscape:grid
       id="grid2"
       units="px"
       originx="0"
       originy="0"
       spacingx="0.264575"
       spacingy="0.264575"
       empcolor="#0099e5"
       empopacity="0.30196078"
       color="#0099e5"
       opacity="0.14901961"
       empspacing="5"
       enabled="true"
       visible="true" />
  </sodipodi:namedview>
  <g
     id="g15">
    <path
       d="m21.166 1e-6h63.498c11.726 0 21.166 9.44 21.166 21.166v63.498c0 11.726-9.44 21.166-21.166 21.166h-63.498c-11.726 0-21.166-9.44-21.166-21.166v-63.498c0-11.726 9.44-21.166 21.166-21.166z"
       fill="#008033"
       stroke-width="1.0583"
       style="paint-order:stroke fill markers"
       id="path1"
       inkscape:export-filename="favicon.png"
       inkscape:export-xdpi="96"
       inkscape:export-ydpi="96" />
    <g
       id="g14"
       transform="matrix(1.2068965,0,0,1.2068965,-149.05151,-10.537379)">
      <path
         id="path10"
         style="fill:#fdcf74;fill-opacity:1;stroke-width:1.71974;stroke-linecap:round;stroke-linejoin:round;paint-order:stroke fill markers"
         d="M 134.93325,38.363376 V 47.6235 l -9.26012,0 a 15.8745,15.8745 135 0 0 -15.8745,15.8745 l 0,3e-6 a 15.874497,15.874497 45 0 0 15.8745,15.874497 h 0 a 15.874499,15.874499 135 0 0 15.8745,-15.874499 v -9.260126 h 9.26012 a 15.874499,15.874499 135 0 0 15.8745,-15.874499 v -4e-6 a 15.874497,15.874497 45 0 0 -15.8745,-15.874497 h 0 a 15.874501,15.874501 135 0 0 -15.8745,15.874501 z m 15.8745,-9.260126 0,0 a 9.2601257,9.2601257 45 0 1 9.26013,9.260126 9.2601259,9.2601259 135.00001 0 1 -9.26013,9.260124 h -9.26012 v -9.260127 a 9.2601226,9.2601226 135 0 1 9.26012,-9.260123 z m -25.13462,25.134625 h 9.26012 v 9.260127 a 9.2601228,9.2601228 135 0 1 -9.26012,9.260123 h -1e-5 a 9.2601239,9.2601239 45 0 1 -9.26012,-9.260124 9.2601267,9.2601267 135 0 1 9.26013,-9.260126 z"
         inkscape:path-effect="#path-effect12"
         inkscape:original-d="M 134.93325,22.488875 V 47.6235 h -25.13462 v 31.749 h 31.749 V 54.237875 h 25.13462 v -31.749 z m 6.61438,6.614375 h 18.52025 V 47.6235 H 141.54763 Z M 116.413,54.237875 h 18.52025 v 18.52025 H 116.413 Z"
         transform="translate(29.103253)" />
      <path
         id="path12"
         style="fill:#fdcf74;fill-opacity:1;stroke-width:1.71974;stroke-linecap:round;stroke-linejoin:round;paint-order:stroke fill markers"
         d="m 150.80775,26.4575 a 7.9372501,7.9372501 0 0 0 -7.93725,7.93725 7.9372501,7.9372501 0 0 0 7.93725,7.93725 7.9372501,7.9372501 0 0 0 7.93725,-7.93725 7.9372501,7.9372501 0 0 0 -7.93725,-7.93725 z m 0,5.2915 a 2.645752,2.645752 0 0 1 2.64575,2.64575 2.645752,2.645752 0 0 1 -2.64575,2.64575 2.645752,2.645752 0 0 1 -2.64575,-2.64575 2.645752,2.645752 0 0 1 2.64575,-2.64575 z" />
      <path
         id="circle13"
         style="fill:#fdcf74;fill-opacity:1;stroke-width:1.71974;stroke-linecap:round;stroke-linejoin:round;paint-order:stroke fill markers"
         d="m -183.87963,-59.529375 a 7.9372501,7.9372501 0 0 0 7.93726,-7.93725 7.9372501,7.9372501 0 0 0 -7.93726,-7.93725 7.9372501,7.9372501 0 0 0 -7.93725,7.93725 7.9372501,7.9372501 0 0 0 7.93725,7.93725 z m 0,-5.2915 a 2.64575,2.64575 0 0 1 -2.64574,-2.64575 2.64575,2.64575 0 0 1 2.64574,-2.64575 2.64575,2.64575 0 0 1 2.64575,2.64575 2.64575,2.64575 0 0 1 -2.64575,2.64575 z"
         transform="scale(-1)" />
    </g>
  </g>
</svg>
